<?xml version="1.0" encoding="utf-8"?>
<!-- Generator: Adobe Illustrator 26.2.1, SVG Export Plug-In . SVG Version: 6.00 Build 0)  -->
<svg version="1.1" id="Layer_1" xmlns="http://www.w3.org/2000/svg" xmlns:xlink="http://www.w3.org/1999/xlink" x="0px" y="0px"
	 viewBox="0 0 687.5 550" style="enable-background:new 0 0 687.5 550;" xml:space="preserve">
<style type="text/css">
	.st0{fill:#ADE0F2;}
	.st1{fill:none;stroke:#FFFFFF;stroke-width:8;stroke-linecap:round;}
	.st2{fill:#FFFFFF;filter:url(#Adobe_OpacityMaskFilter);}
	.st3{mask:url(#a_00000024705021513683529160000018154925132118787502_);fill:none;stroke:#FFFFFF;stroke-width:16;}
	.st4{fill:#FFFFFF;filter:url(#Adobe_OpacityMaskFilter_00000176012188970830335160000016555673641516457860_);}
	.st5{mask:url(#b_00000017491610052685894960000006942699003087635383_);fill:none;stroke:#FFFFFF;stroke-width:16;}
	.st6{fill:#FFFFFF;filter:url(#Adobe_OpacityMaskFilter_00000056408389858402157480000006643445779600172209_);}
	.st7{mask:url(#c_00000092424442388804060680000007193739559196081578_);fill:none;stroke:#FFFFFF;stroke-width:16;}
	.st8{fill:#FFFFFF;filter:url(#Adobe_OpacityMaskFilter_00000093171745447452841250000001290411214525939643_);}
	.st9{mask:url(#d_00000117676559591537642900000007324232704404266645_);fill:#FFFFFF;stroke:#FFFFFF;stroke-width:16;}
	.st10{fill:#FFFFFF;filter:url(#Adobe_OpacityMaskFilter_00000090292240369286825770000016462391102470160830_);}
	.st11{mask:url(#e_00000034058143938774652210000008240107312384491169_);fill:#FFFFFF;stroke:#FFFFFF;stroke-width:16;}
	.st12{fill:#FFFFFF;filter:url(#Adobe_OpacityMaskFilter_00000142897333991597591600000014700924053366685583_);}
	.st13{mask:url(#f_00000161614088591196646310000012027410019438806664_);fill:#FFFFFF;stroke:#FFFFFF;stroke-width:16;}
	.st14{fill:#FFFFFF;filter:url(#Adobe_OpacityMaskFilter_00000069395392333197084350000012238176132967869612_);}
	.st15{mask:url(#g_00000025443384825842867930000011313229446171941256_);fill:#FFFFFF;stroke:#FFFFFF;stroke-width:16;}
	.st16{fill:#FFFFFF;filter:url(#Adobe_OpacityMaskFilter_00000118384910960343299730000009301111781942473656_);}
	.st17{mask:url(#h_00000125594435750156840220000013309827349495668398_);fill:#FFFFFF;stroke:#FFFFFF;stroke-width:16;}
	.st18{fill:#FFFFFF;stroke:#FFFFFF;stroke-width:8;}
	.st19{fill:#FFFFFF;filter:url(#Adobe_OpacityMaskFilter_00000165226965950046391140000010753942304385063586_);}
	.st20{mask:url(#i_00000028308920375490652300000012511235407593444007_);fill:#FFFFFF;stroke:#FFFFFF;stroke-width:16;}
	.st21{fill:#FFFFFF;filter:url(#Adobe_OpacityMaskFilter_00000077314948775670444320000000813241165351970949_);}
	.st22{mask:url(#j_00000059282363653704553370000007910660131060065926_);fill:#FFFFFF;stroke:#FFFFFF;stroke-width:16;}
	.st23{fill:#FFFFFF;filter:url(#Adobe_OpacityMaskFilter_00000049188183548059743130000014277842052125013679_);}
	.st24{mask:url(#k_00000169524589654716676500000007774951205827930013_);fill:#FFFFFF;stroke:#FFFFFF;stroke-width:16;}
	.st25{fill:#FFFFFF;filter:url(#Adobe_OpacityMaskFilter_00000159460007679529996320000002385396117623331732_);}
	.st26{mask:url(#l_00000137835194079082066270000016910584062972481215_);fill:#FFFFFF;stroke:#FFFFFF;stroke-width:16;}
	.st27{fill:#FFFFFF;filter:url(#Adobe_OpacityMaskFilter_00000083781662982139916610000011638839276466200448_);}
	.st28{mask:url(#m_00000047769470034032407440000012293304162741191601_);fill:#FFFFFF;stroke:#FFFFFF;stroke-width:16;}
	.st29{fill:#FF9E68;}
	.st30{fill:#FF7A30;}
	.st31{fill:#59CAF1;}
	.st32{fill:#FFFFFF;}
</style>
<path class="st0" d="M0,0h687.5v550H0V0z"/>
<path class="st1" d="M242,448h400"/>
<defs>
	<filter id="Adobe_OpacityMaskFilter" filterUnits="userSpaceOnUse" x="381.2" y="129" width="122.4" height="331">
		<feColorMatrix  type="matrix" values="1 0 0 0 0  0 1 0 0 0  0 0 1 0 0  0 0 0 1 0"/>
	</filter>
</defs>
<mask maskUnits="userSpaceOnUse" x="381.2" y="129" width="122.4" height="331" id="a_00000024705021513683529160000018154925132118787502_">
	<path class="st2" d="M394.2,137h96.4c2.8,0,5,2.2,5,5v305c0,2.8-2.2,5-5,5h-96.4c-2.8,0-5-2.2-5-5V142
		C389.2,139.2,391.5,137,394.2,137z"/>
</mask>
<path class="st3" d="M394.2,137h96.4c2.8,0,5,2.2,5,5v305c0,2.8-2.2,5-5,5h-96.4c-2.8,0-5-2.2-5-5V142
	C389.2,139.2,391.5,137,394.2,137z"/>
<defs>
	
		<filter id="Adobe_OpacityMaskFilter_00000088823945559187693500000005963461755290521989_" filterUnits="userSpaceOnUse" x="301.5" y="248.4" width="101.6" height="211.6">
		<feColorMatrix  type="matrix" values="1 0 0 0 0  0 1 0 0 0  0 0 1 0 0  0 0 0 1 0"/>
	</filter>
</defs>
<mask maskUnits="userSpaceOnUse" x="301.5" y="248.4" width="101.6" height="211.6" id="b_00000017491610052685894960000006942699003087635383_">
	<path style="fill:#FFFFFF;filter:url(#Adobe_OpacityMaskFilter_00000088823945559187693500000005963461755290521989_);" d="
		M314.5,256.4h75.6c2.8,0,5,2.2,5,5V447c0,2.8-2.2,5-5,5h-75.6c-2.8,0-5-2.2-5-5V261.4C309.5,258.6,311.7,256.4,314.5,256.4z"/>
</mask>
<path class="st5" d="M314.5,256.4h75.6c2.8,0,5,2.2,5,5V447c0,2.8-2.2,5-5,5h-75.6c-2.8,0-5-2.2-5-5V261.4
	C309.5,258.6,311.7,256.4,314.5,256.4z"/>
<defs>
	
		<filter id="Adobe_OpacityMaskFilter_00000165951734249240079150000006774232165283379387_" filterUnits="userSpaceOnUse" x="480.9" y="248.4" width="101.6" height="211.6">
		<feColorMatrix  type="matrix" values="1 0 0 0 0  0 1 0 0 0  0 0 1 0 0  0 0 0 1 0"/>
	</filter>
</defs>
<mask maskUnits="userSpaceOnUse" x="480.9" y="248.4" width="101.6" height="211.6" id="c_00000092424442388804060680000007193739559196081578_">
	<path style="fill:#FFFFFF;filter:url(#Adobe_OpacityMaskFilter_00000165951734249240079150000006774232165283379387_);" d="
		M493.9,256.4h75.6c2.8,0,5,2.2,5,5V447c0,2.8-2.2,5-5,5h-75.6c-2.8,0-5-2.2-5-5V261.4C488.9,258.6,491.2,256.4,493.9,256.4z"/>
</mask>
<path class="st7" d="M493.9,256.4h75.6c2.8,0,5,2.2,5,5V447c0,2.8-2.2,5-5,5h-75.6c-2.8,0-5-2.2-5-5V261.4
	C488.9,258.6,491.2,256.4,493.9,256.4z"/>
<defs>
	
		<filter id="Adobe_OpacityMaskFilter_00000109738875964113227050000017689233627646163640_" filterUnits="userSpaceOnUse" x="415.3" y="356.8" width="54.2" height="103.2">
		<feColorMatrix  type="matrix" values="1 0 0 0 0  0 1 0 0 0  0 0 1 0 0  0 0 0 1 0"/>
	</filter>
</defs>
<mask maskUnits="userSpaceOnUse" x="415.3" y="356.8" width="54.2" height="103.2" id="d_00000117676559591537642900000007324232704404266645_">
	<path style="fill:#FFFFFF;filter:url(#Adobe_OpacityMaskFilter_00000109738875964113227050000017689233627646163640_);" d="
		M429.3,364.8h26.2c3.3,0,6,2.7,6,6V446c0,3.3-2.7,6-6,6h-26.2c-3.3,0-6-2.7-6-6v-75.2C423.3,367.5,426,364.8,429.3,364.8z"/>
</mask>
<path class="st9" d="M429.3,364.8h26.2c3.3,0,6,2.7,6,6V446c0,3.3-2.7,6-6,6h-26.2c-3.3,0-6-2.7-6-6v-75.2
	C423.3,367.5,426,364.8,429.3,364.8z"/>
<defs>
	
		<filter id="Adobe_OpacityMaskFilter_00000036230844678689960280000007156592974589930653_" filterUnits="userSpaceOnUse" x="402" y="156.1" width="80" height="47.3">
		<feColorMatrix  type="matrix" values="1 0 0 0 0  0 1 0 0 0  0 0 1 0 0  0 0 0 1 0"/>
	</filter>
</defs>
<mask maskUnits="userSpaceOnUse" x="402" y="156.1" width="80" height="47.3" id="e_00000034058143938774652210000008240107312384491169_">
	<path style="fill:#FFFFFF;filter:url(#Adobe_OpacityMaskFilter_00000036230844678689960280000007156592974589930653_);" d="
		M416,164.1h52c3.3,0,6,2.7,6,6v19.3c0,3.3-2.7,6-6,6h-52c-3.3,0-6-2.7-6-6v-19.3C410,166.8,412.7,164.1,416,164.1z"/>
</mask>
<path class="st11" d="M416,164.1h52c3.3,0,6,2.7,6,6v19.3c0,3.3-2.7,6-6,6h-52c-3.3,0-6-2.7-6-6v-19.3
	C410,166.8,412.7,164.1,416,164.1z"/>
<defs>
	
		<filter id="Adobe_OpacityMaskFilter_00000009578067149132965020000000491243246987395983_" filterUnits="userSpaceOnUse" x="402" y="199.3" width="80" height="47.3">
		<feColorMatrix  type="matrix" values="1 0 0 0 0  0 1 0 0 0  0 0 1 0 0  0 0 0 1 0"/>
	</filter>
</defs>
<mask maskUnits="userSpaceOnUse" x="402" y="199.3" width="80" height="47.3" id="f_00000161614088591196646310000012027410019438806664_">
	<path style="fill:#FFFFFF;filter:url(#Adobe_OpacityMaskFilter_00000009578067149132965020000000491243246987395983_);" d="
		M416,207.3h52c3.3,0,6,2.7,6,6v19.3c0,3.3-2.7,6-6,6h-52c-3.3,0-6-2.7-6-6v-19.3C410,210,412.7,207.3,416,207.3z"/>
</mask>
<path class="st13" d="M416,207.3h52c3.3,0,6,2.7,6,6v19.3c0,3.3-2.7,6-6,6h-52c-3.3,0-6-2.7-6-6v-19.3
	C410,210,412.7,207.3,416,207.3z"/>
<defs>
	
		<filter id="Adobe_OpacityMaskFilter_00000108311207972918426360000007688759945063910533_" filterUnits="userSpaceOnUse" x="402" y="242.5" width="80" height="47.3">
		<feColorMatrix  type="matrix" values="1 0 0 0 0  0 1 0 0 0  0 0 1 0 0  0 0 0 1 0"/>
	</filter>
</defs>
<mask maskUnits="userSpaceOnUse" x="402" y="242.5" width="80" height="47.3" id="g_00000025443384825842867930000011313229446171941256_">
	<path style="fill:#FFFFFF;filter:url(#Adobe_OpacityMaskFilter_00000108311207972918426360000007688759945063910533_);" d="
		M416,250.5h52c3.3,0,6,2.7,6,6v19.3c0,3.3-2.7,6-6,6h-52c-3.3,0-6-2.7-6-6v-19.3C410,253.2,412.7,250.5,416,250.5z"/>
</mask>
<path class="st15" d="M416,250.5h52c3.3,0,6,2.7,6,6v19.3c0,3.3-2.7,6-6,6h-52c-3.3,0-6-2.7-6-6v-19.3
	C410,253.2,412.7,250.5,416,250.5z"/>
<defs>
	
		<filter id="Adobe_OpacityMaskFilter_00000057139071549638626110000013209693392452706974_" filterUnits="userSpaceOnUse" x="402" y="285.7" width="80" height="47.3">
		<feColorMatrix  type="matrix" values="1 0 0 0 0  0 1 0 0 0  0 0 1 0 0  0 0 0 1 0"/>
	</filter>
</defs>
<mask maskUnits="userSpaceOnUse" x="402" y="285.7" width="80" height="47.3" id="h_00000125594435750156840220000013309827349495668398_">
	<path style="fill:#FFFFFF;filter:url(#Adobe_OpacityMaskFilter_00000057139071549638626110000013209693392452706974_);" d="
		M416,293.7h52c3.3,0,6,2.7,6,6V319c0,3.3-2.7,6-6,6h-52c-3.3,0-6-2.7-6-6v-19.3C410,296.3,412.7,293.7,416,293.7z"/>
</mask>
<path class="st17" d="M416,293.7h52c3.3,0,6,2.7,6,6V319c0,3.3-2.7,6-6,6h-52c-3.3,0-6-2.7-6-6v-19.3
	C410,296.3,412.7,293.7,416,293.7z"/>
<path class="st18" d="M330.9,287.8c0-1.1,0.9-2,2-2h39.5c1.1,0,2,0.9,2,2v18.5c0,1.1-0.9,2-2,2h-39.5c-1.1,0-2-0.9-2-2V287.8z"/>
<defs>
	
		<filter id="Adobe_OpacityMaskFilter_00000044176512599542618150000018382804484692489380_" filterUnits="userSpaceOnUse" x="318.9" y="317" width="67.5" height="46.5">
		<feColorMatrix  type="matrix" values="1 0 0 0 0  0 1 0 0 0  0 0 1 0 0  0 0 0 1 0"/>
	</filter>
</defs>
<mask maskUnits="userSpaceOnUse" x="318.9" y="317" width="67.5" height="46.5" id="i_00000028308920375490652300000012511235407593444007_">
	<path style="fill:#FFFFFF;filter:url(#Adobe_OpacityMaskFilter_00000044176512599542618150000018382804484692489380_);" d="
		M332.9,325h39.5c3.3,0,6,2.7,6,6v18.5c0,3.3-2.7,6-6,6h-39.5c-3.3,0-6-2.7-6-6V331C326.9,327.7,329.6,325,332.9,325z"/>
</mask>
<path class="st20" d="M332.9,325h39.5c3.3,0,6,2.7,6,6v18.5c0,3.3-2.7,6-6,6h-39.5c-3.3,0-6-2.7-6-6V331
	C326.9,327.7,329.6,325,332.9,325z"/>
<defs>
	
		<filter id="Adobe_OpacityMaskFilter_00000104683011185532166330000006132586178363000475_" filterUnits="userSpaceOnUse" x="318.9" y="360.2" width="67.5" height="46.5">
		<feColorMatrix  type="matrix" values="1 0 0 0 0  0 1 0 0 0  0 0 1 0 0  0 0 0 1 0"/>
	</filter>
</defs>
<mask maskUnits="userSpaceOnUse" x="318.9" y="360.2" width="67.5" height="46.5" id="j_00000059282363653704553370000007910660131060065926_">
	<path style="fill:#FFFFFF;filter:url(#Adobe_OpacityMaskFilter_00000104683011185532166330000006132586178363000475_);" d="
		M332.9,368.2h39.5c3.3,0,6,2.7,6,6v18.5c0,3.3-2.7,6-6,6h-39.5c-3.3,0-6-2.7-6-6v-18.5C326.9,370.9,329.6,368.2,332.9,368.2z"/>
</mask>
<path class="st22" d="M332.9,368.2h39.5c3.3,0,6,2.7,6,6v18.5c0,3.3-2.7,6-6,6h-39.5c-3.3,0-6-2.7-6-6v-18.5
	C326.9,370.9,329.6,368.2,332.9,368.2z"/>
<defs>
	
		<filter id="Adobe_OpacityMaskFilter_00000099628047198996480360000010172810082559532698_" filterUnits="userSpaceOnUse" x="498.4" y="273.8" width="67.5" height="46.5">
		<feColorMatrix  type="matrix" values="1 0 0 0 0  0 1 0 0 0  0 0 1 0 0  0 0 0 1 0"/>
	</filter>
</defs>
<mask maskUnits="userSpaceOnUse" x="498.4" y="273.8" width="67.5" height="46.5" id="k_00000169524589654716676500000007774951205827930013_">
	<path style="fill:#FFFFFF;filter:url(#Adobe_OpacityMaskFilter_00000099628047198996480360000010172810082559532698_);" d="
		M512.4,281.8h39.5c3.3,0,6,2.7,6,6v18.5c0,3.3-2.7,6-6,6h-39.5c-3.3,0-6-2.7-6-6v-18.5C506.4,284.5,509.1,281.8,512.4,281.8z"/>
</mask>
<path class="st24" d="M512.4,281.8h39.5c3.3,0,6,2.7,6,6v18.5c0,3.3-2.7,6-6,6h-39.5c-3.3,0-6-2.7-6-6v-18.5
	C506.4,284.5,509.1,281.8,512.4,281.8z"/>
<defs>
	
		<filter id="Adobe_OpacityMaskFilter_00000078028461907715247750000015386064111479315886_" filterUnits="userSpaceOnUse" x="498.4" y="317" width="67.5" height="46.5">
		<feColorMatrix  type="matrix" values="1 0 0 0 0  0 1 0 0 0  0 0 1 0 0  0 0 0 1 0"/>
	</filter>
</defs>
<mask maskUnits="userSpaceOnUse" x="498.4" y="317" width="67.5" height="46.5" id="l_00000137835194079082066270000016910584062972481215_">
	<path style="fill:#FFFFFF;filter:url(#Adobe_OpacityMaskFilter_00000078028461907715247750000015386064111479315886_);" d="
		M512.4,325h39.5c3.3,0,6,2.7,6,6v18.5c0,3.3-2.7,6-6,6h-39.5c-3.3,0-6-2.7-6-6V331C506.4,327.7,509.1,325,512.4,325z"/>
</mask>
<path class="st26" d="M512.4,325h39.5c3.3,0,6,2.7,6,6v18.5c0,3.3-2.7,6-6,6h-39.5c-3.3,0-6-2.7-6-6V331
	C506.4,327.7,509.1,325,512.4,325z"/>
<defs>
	
		<filter id="Adobe_OpacityMaskFilter_00000141428014275995148880000015367883148261643399_" filterUnits="userSpaceOnUse" x="498.4" y="360.2" width="67.5" height="46.5">
		<feColorMatrix  type="matrix" values="1 0 0 0 0  0 1 0 0 0  0 0 1 0 0  0 0 0 1 0"/>
	</filter>
</defs>
<mask maskUnits="userSpaceOnUse" x="498.4" y="360.2" width="67.5" height="46.5" id="m_00000047769470034032407440000012293304162741191601_">
	<path style="fill:#FFFFFF;filter:url(#Adobe_OpacityMaskFilter_00000141428014275995148880000015367883148261643399_);" d="
		M512.4,368.2h39.5c3.3,0,6,2.7,6,6v18.5c0,3.3-2.7,6-6,6h-39.5c-3.3,0-6-2.7-6-6v-18.5C506.4,370.9,509.1,368.2,512.4,368.2z"/>
</mask>
<path class="st28" d="M512.4,368.2h39.5c3.3,0,6,2.7,6,6v18.5c0,3.3-2.7,6-6,6h-39.5c-3.3,0-6-2.7-6-6v-18.5
	C506.4,370.9,509.1,368.2,512.4,368.2z"/>
<path class="st29" d="M0,9h276L125,549H0V9z"/>
<path class="st30" d="M688,0L0,226V0H688z"/>
<path class="st31" d="M0,422l553,127H0V422z"/>
<path class="st32" d="M38.2,37.9V77h-6.5V37.9H38.2z M50.9,55v5.5H36.7V55H50.9z M52.7,37.9v5.5h-16v-5.5H52.7z M56,63.7v-2.3
	c0-2.3,0.3-4.3,0.8-6c0.6-1.7,1.3-3.2,2.4-4.3c1-1.2,2.2-2.1,3.7-2.7c1.4-0.6,2.9-0.9,4.6-0.9c1.7,0,3.3,0.3,4.7,0.9
	c1.4,0.6,2.7,1.5,3.7,2.7c1,1.2,1.8,2.6,2.4,4.3c0.6,1.7,0.8,3.7,0.8,6v2.3c0,2.3-0.3,4.3-0.8,6c-0.6,1.7-1.4,3.2-2.4,4.4
	c-1,1.1-2.2,2-3.6,2.6c-1.4,0.6-2.9,0.9-4.6,0.9c-1.7,0-3.2-0.3-4.6-0.9c-1.4-0.6-2.6-1.5-3.7-2.6c-1-1.2-1.8-2.6-2.4-4.4
	S56,65.9,56,63.7L56,63.7z M62.2,61.3v2.3c0,1.4,0.1,2.7,0.4,3.8c0.2,1.1,0.6,2,1.1,2.7c0.5,0.7,1,1.3,1.7,1.6
	c0.6,0.4,1.4,0.5,2.1,0.5c0.9,0,1.6-0.2,2.3-0.5c0.7-0.4,1.2-0.9,1.6-1.6c0.4-0.7,0.8-1.6,1-2.7c0.2-1.1,0.3-2.4,0.3-3.8v-2.3
	c0-1.4-0.1-2.7-0.4-3.8c-0.2-1.1-0.6-2-1.1-2.7c-0.5-0.7-1-1.3-1.7-1.6c-0.7-0.4-1.4-0.5-2.1-0.5c-0.8,0-1.5,0.2-2.1,0.5
	c-0.6,0.4-1.2,0.9-1.6,1.6c-0.5,0.7-0.8,1.6-1.1,2.7C62.3,58.6,62.2,59.9,62.2,61.3L62.2,61.3z M90.6,53.6V77h-6.3V47.9h6L90.6,53.6
	L90.6,53.6z M97.6,47.8l0,6.2c-0.4-0.1-0.8-0.1-1.2-0.2c-0.4,0-0.8-0.1-1.2-0.1c-0.9,0-1.6,0.2-2.2,0.5c-0.6,0.3-1.2,0.8-1.6,1.3
	c-0.4,0.6-0.8,1.3-1,2.1c-0.2,0.8-0.4,1.7-0.4,2.7l-1.3,0.1c0-1.8,0.1-3.5,0.4-5.1c0.3-1.6,0.7-2.9,1.3-4.1c0.6-1.2,1.3-2.1,2.2-2.8
	c0.9-0.7,1.9-1,3.1-1c0.3,0,0.7,0,1.1,0.1C97.2,47.6,97.5,47.7,97.6,47.8L97.6,47.8z M134.2,64.2h6.5c-0.1,2.8-0.7,5.2-1.7,7.2
	c-1,2-2.5,3.5-4.4,4.5c-1.9,1-4.2,1.6-7,1.6c-2.1,0-3.9-0.4-5.6-1.1c-1.6-0.7-3-1.9-4.2-3.2c-1.1-1.4-2-3.2-2.6-5.2
	c-0.6-2.1-0.9-4.4-0.9-7V54c0-2.6,0.3-5,0.9-7c0.6-2.1,1.5-3.8,2.7-5.2c1.1-1.4,2.6-2.5,4.2-3.2c1.7-0.8,3.6-1.1,5.7-1.1
	c2.7,0,5,0.5,6.8,1.6s3.3,2.6,4.3,4.6c1,2,1.6,4.5,1.7,7.3h-6.5c-0.1-2-0.4-3.5-0.8-4.7c-0.4-1.2-1.1-2-2-2.6
	c-0.9-0.5-2.1-0.8-3.5-0.8c-1.2,0-2.3,0.2-3.2,0.7c-0.9,0.5-1.6,1.2-2.2,2.1c-0.6,0.9-1,2.1-1.3,3.5c-0.3,1.4-0.4,3-0.4,4.9v7
	c0,1.8,0.1,3.4,0.3,4.8c0.2,1.4,0.6,2.6,1.1,3.5c0.5,0.9,1.2,1.7,2.1,2.2c0.9,0.5,1.9,0.7,3.2,0.7c1.5,0,2.8-0.2,3.7-0.7
	c0.9-0.5,1.6-1.3,2.1-2.4C133.8,67.8,134.1,66.2,134.2,64.2L134.2,64.2z M145,63.7v-2.3c0-2.3,0.3-4.3,0.8-6
	c0.6-1.7,1.3-3.2,2.4-4.3c1-1.2,2.2-2.1,3.7-2.7c1.4-0.6,2.9-0.9,4.6-0.9c1.7,0,3.3,0.3,4.7,0.9c1.4,0.6,2.7,1.5,3.7,2.7
	c1,1.2,1.8,2.6,2.4,4.3c0.6,1.7,0.8,3.7,0.8,6v2.3c0,2.3-0.3,4.3-0.8,6c-0.6,1.7-1.4,3.2-2.4,4.4c-1,1.1-2.2,2-3.6,2.6
	c-1.4,0.6-2.9,0.9-4.6,0.9c-1.7,0-3.2-0.3-4.6-0.9c-1.4-0.6-2.6-1.5-3.7-2.6c-1-1.2-1.8-2.6-2.4-4.4S145,65.9,145,63.7L145,63.7z
	 M151.3,61.3v2.3c0,1.4,0.1,2.7,0.4,3.8c0.2,1.1,0.6,2,1.1,2.7c0.5,0.7,1,1.3,1.7,1.6c0.7,0.4,1.4,0.5,2.1,0.5
	c0.9,0,1.6-0.2,2.3-0.5c0.7-0.4,1.2-0.9,1.6-1.6c0.4-0.7,0.8-1.6,1-2.7c0.2-1.1,0.3-2.4,0.3-3.8v-2.3c0-1.4-0.1-2.7-0.4-3.8
	c-0.3-1.1-0.6-2-1.1-2.7c-0.5-0.7-1-1.3-1.7-1.6c-0.7-0.4-1.4-0.5-2.1-0.5c-0.8,0-1.5,0.2-2.1,0.5c-0.6,0.4-1.2,0.9-1.6,1.6
	c-0.5,0.7-0.8,1.6-1.1,2.7C151.4,58.6,151.3,59.9,151.3,61.3L151.3,61.3z M179.7,53.9V77h-6.3V47.9h5.9L179.7,53.9L179.7,53.9z
	 M178.7,61.4h-2.1c0-2,0.1-3.9,0.5-5.6c0.4-1.7,1-3.2,1.8-4.5c0.8-1.3,1.9-2.2,3.1-2.9c1.2-0.7,2.7-1,4.4-1c1.1,0,2.1,0.2,3,0.6
	c0.9,0.4,1.7,1,2.4,1.8c0.7,0.8,1.2,1.9,1.6,3.2c0.4,1.3,0.6,2.8,0.6,4.7V77h-6.3V58.2c0-1.4-0.2-2.5-0.5-3.3
	c-0.3-0.8-0.8-1.4-1.3-1.7c-0.6-0.3-1.3-0.5-2.1-0.5c-0.9,0-1.7,0.2-2.3,0.7c-0.6,0.4-1.2,1.1-1.6,1.9c-0.4,0.8-0.7,1.7-0.9,2.8
	C178.8,59.2,178.7,60.3,178.7,61.4L178.7,61.4z M193.5,59.8l-2.9,0.7c0-1.8,0.1-3.4,0.5-5c0.4-1.6,1-3,1.8-4.2
	c0.8-1.2,1.8-2.1,3-2.8c1.2-0.7,2.6-1,4.2-1c1.2,0,2.3,0.2,3.3,0.6c1,0.4,1.9,1,2.6,1.9c0.7,0.9,1.2,2,1.6,3.4c0.4,1.4,0.6,3,0.6,5
	V77h-6.3V58.2c0-1.5-0.2-2.6-0.5-3.4c-0.3-0.8-0.8-1.3-1.3-1.6c-0.6-0.3-1.3-0.5-2.1-0.5c-0.7,0-1.4,0.2-1.9,0.6
	c-0.5,0.4-1,0.9-1.4,1.5c-0.4,0.6-0.7,1.4-0.9,2.3C193.6,57.9,193.5,58.8,193.5,59.8z M220.8,53.5v34.6h-6.2V47.9h5.7L220.8,53.5
	L220.8,53.5z M236.4,61.3v2.3c0,2.3-0.2,4.3-0.6,6c-0.4,1.7-1,3.2-1.8,4.4c-0.8,1.2-1.8,2-2.9,2.6c-1.2,0.6-2.5,0.9-4.1,0.9
	c-1.5,0-2.7-0.3-3.8-1c-1.1-0.6-2-1.5-2.7-2.7c-0.7-1.2-1.3-2.5-1.8-4.1c-0.4-1.6-0.7-3.4-0.9-5.3v-3.5c0.2-2,0.5-3.8,0.9-5.5
	c0.4-1.7,1-3.1,1.7-4.3c0.8-1.2,1.7-2.1,2.7-2.8s2.4-1,3.8-1c1.6,0,2.9,0.3,4.1,0.8c1.2,0.6,2.2,1.4,3,2.6c0.8,1.1,1.4,2.6,1.8,4.3
	C236.2,56.9,236.4,58.9,236.4,61.3L236.4,61.3z M230.1,63.6v-2.3c0-1.5-0.1-2.8-0.3-3.8c-0.2-1.1-0.5-2-0.9-2.7
	c-0.4-0.7-0.9-1.2-1.6-1.6c-0.6-0.3-1.4-0.5-2.3-0.5c-0.8,0-1.5,0.2-2.2,0.5c-0.6,0.3-1.2,0.8-1.6,1.4c-0.4,0.6-0.8,1.3-1,2.1
	c-0.2,0.8-0.4,1.7-0.5,2.6V66c0.2,1.1,0.4,2.2,0.8,3.2c0.4,0.9,0.9,1.7,1.6,2.3c0.7,0.6,1.7,0.9,2.9,0.9c0.9,0,1.7-0.2,2.3-0.5
	c0.6-0.4,1.2-0.9,1.6-1.6c0.4-0.7,0.7-1.6,0.9-2.7C230,66.4,230.1,65.1,230.1,63.6L230.1,63.6z M255.2,71.1V56.6
	c0-1-0.1-1.8-0.4-2.4c-0.3-0.6-0.7-1-1.2-1.3c-0.5-0.3-1.2-0.4-2-0.4c-0.8,0-1.5,0.2-2.1,0.5c-0.5,0.3-1,0.8-1.3,1.4
	c-0.3,0.6-0.4,1.2-0.4,2h-6.3c0-1.2,0.2-2.3,0.7-3.4c0.5-1.1,1.2-2.1,2.1-2.9c0.9-0.8,2-1.5,3.2-2c1.3-0.5,2.7-0.7,4.2-0.7
	c1.9,0,3.5,0.3,5,0.9c1.5,0.6,2.6,1.6,3.4,3c0.8,1.4,1.3,3.2,1.3,5.4v13.6c0,1.3,0.1,2.5,0.2,3.6c0.2,1,0.4,1.9,0.7,2.7V77H256
	c-0.3-0.7-0.5-1.6-0.6-2.7C255.2,73.2,255.2,72.2,255.2,71.1L255.2,71.1z M256,59.3l0,4.1h-3c-0.9,0-1.7,0.1-2.4,0.4
	c-0.7,0.2-1.3,0.6-1.8,1c-0.5,0.4-0.9,1-1.1,1.6c-0.3,0.7-0.4,1.4-0.4,2.1c0,0.9,0.1,1.7,0.4,2.2c0.3,0.6,0.7,1,1.2,1.3
	c0.5,0.3,1.1,0.4,1.9,0.4c1,0,1.9-0.2,2.6-0.6c0.8-0.4,1.3-1,1.7-1.6c0.4-0.6,0.6-1.2,0.5-1.7l1.4,2.6c-0.1,0.7-0.4,1.4-0.8,2.1
	c-0.4,0.8-0.9,1.5-1.5,2.1c-0.6,0.7-1.4,1.3-2.2,1.7c-0.9,0.4-1.9,0.6-3,0.6c-1.6,0-3.1-0.3-4.4-1c-1.3-0.7-2.3-1.7-3-2.9
	c-0.7-1.3-1.1-2.8-1.1-4.6c0-1.4,0.2-2.8,0.7-3.9c0.5-1.2,1.2-2.2,2.1-3c0.9-0.9,2.1-1.5,3.6-2c1.4-0.5,3.1-0.7,5.1-0.7
	C252.5,59.3,256,59.3,256,59.3z M274,54.1V77h-6.3V47.9h5.9L274,54.1L274,54.1z M272.9,61.4h-2c0-2.1,0.2-4,0.7-5.7
	c0.5-1.7,1.1-3.2,2-4.4c0.9-1.2,1.9-2.2,3.1-2.8c1.2-0.7,2.6-1,4.1-1c1.1,0,2.2,0.2,3.1,0.6c1,0.4,1.8,1,2.5,1.9
	c0.7,0.9,1.2,2,1.6,3.4c0.4,1.4,0.6,3.1,0.6,5V77h-6.3V58.2c0-1.4-0.2-2.4-0.5-3.2c-0.3-0.8-0.7-1.4-1.3-1.7
	c-0.6-0.4-1.3-0.5-2.2-0.5c-0.8,0-1.5,0.2-2.2,0.7c-0.7,0.4-1.2,1.1-1.7,1.9c-0.5,0.8-0.8,1.7-1.1,2.8
	C273,59.2,272.9,60.3,272.9,61.4z M301.4,47.9V77h-6.3V47.9C295.1,47.9,301.4,47.9,301.4,47.9z M294.8,40.3c0-1,0.3-1.8,0.9-2.5
	c0.6-0.7,1.5-1,2.6-1c1.1,0,1.9,0.3,2.6,1c0.6,0.7,0.9,1.5,0.9,2.5c0,1-0.3,1.8-0.9,2.4c-0.6,0.7-1.5,1-2.6,1c-1.1,0-1.9-0.3-2.6-1
	C295.1,42.1,294.8,41.3,294.8,40.3z M319.2,77.5c-1.9,0-3.6-0.3-5-0.8c-1.5-0.6-2.7-1.4-3.7-2.5c-1-1.1-1.8-2.5-2.3-4.1
	c-0.5-1.6-0.8-3.6-0.8-5.7v-2.8c0-2.5,0.3-4.6,0.8-6.3c0.6-1.8,1.4-3.3,2.4-4.4c1-1.1,2.2-2,3.5-2.6c1.4-0.6,2.9-0.8,4.5-0.8
	c1.8,0,3.4,0.3,4.8,0.9c1.3,0.6,2.5,1.5,3.3,2.7c0.9,1.2,1.5,2.6,1.9,4.4c0.4,1.7,0.6,3.7,0.6,6v3.1h-18.9v-4.7H323v-0.7
	c0-1.3-0.2-2.5-0.5-3.4c-0.3-1-0.8-1.7-1.4-2.2c-0.6-0.5-1.5-0.8-2.6-0.8c-0.8,0-1.5,0.2-2.1,0.5c-0.6,0.3-1.1,0.8-1.6,1.5
	c-0.4,0.7-0.7,1.6-0.9,2.7c-0.2,1.1-0.3,2.5-0.3,4.2v2.8c0,1.4,0.1,2.7,0.4,3.7c0.3,1,0.7,1.8,1.2,2.5c0.5,0.6,1.1,1.1,1.9,1.4
	c0.8,0.3,1.6,0.4,2.6,0.4c1.5,0,2.7-0.3,3.7-0.8c1-0.5,2-1.3,2.7-2.1l2.8,3.8c-0.5,0.7-1.2,1.4-2.1,2.1c-0.9,0.7-1.9,1.2-3.2,1.6
	C322.3,77.3,320.9,77.5,319.2,77.5L319.2,77.5z M347.6,69.3c0-0.6-0.2-1.2-0.5-1.6c-0.3-0.5-0.9-1-1.7-1.4c-0.8-0.5-1.8-1-3.1-1.5
	c-1.2-0.5-2.4-1.1-3.6-1.7c-1-0.6-1.9-1.2-2.6-1.8c-0.7-0.7-1.3-1.5-1.6-2.3c-0.4-0.9-0.6-1.9-0.6-3.1c0-1.2,0.2-2.3,0.7-3.3
	c0.4-1,1.1-1.9,1.9-2.7c0.8-0.8,1.9-1.4,3-1.8c1.2-0.4,2.5-0.7,4-0.7c2.1,0,3.9,0.4,5.4,1.2c1.5,0.8,2.6,1.8,3.4,3.2
	c0.8,1.3,1.2,2.9,1.2,4.6h-6.3c0-0.7-0.1-1.4-0.4-2c-0.3-0.6-0.7-1.1-1.2-1.5c-0.6-0.4-1.3-0.6-2.1-0.6c-0.8,0-1.5,0.2-2,0.5
	c-0.5,0.3-0.9,0.7-1.2,1.2c-0.3,0.5-0.4,1-0.4,1.6c0,0.4,0.1,0.8,0.2,1.2c0.2,0.3,0.4,0.7,0.8,1c0.4,0.3,0.9,0.6,1.5,0.9
	c0.6,0.3,1.5,0.7,2.4,1.1c2,0.8,3.6,1.5,4.9,2.3c1.3,0.8,2.3,1.7,2.9,2.8c0.6,1.1,1,2.4,1,4c0,1.3-0.2,2.5-0.7,3.5
	c-0.5,1-1.2,2-2,2.7c-0.9,0.8-1.9,1.3-3.2,1.7c-1.2,0.4-2.6,0.6-4.1,0.6c-2.3,0-4.2-0.4-5.8-1.3c-1.6-0.9-2.7-2.1-3.5-3.5
	c-0.8-1.4-1.2-2.9-1.2-4.5h6c0.1,1.1,0.3,2,0.7,2.7c0.4,0.6,1,1.1,1.7,1.3c0.7,0.2,1.4,0.3,2.1,0.3c0.9,0,1.6-0.1,2.2-0.3
	c0.6-0.2,1-0.6,1.3-1.1C347.5,70.6,347.6,70,347.6,69.3L347.6,69.3z"/>
</svg>
